<?xml version="1.0" encoding="utf-8"?>
<!-- Generator: Adobe Illustrator 19.1.0, SVG Export Plug-In . SVG Version: 6.00 Build 0)  -->
<svg version="1.1" id="Layer_1" xmlns="http://www.w3.org/2000/svg" xmlns:xlink="http://www.w3.org/1999/xlink" x="0px" y="0px"
	 viewBox="-69.9 124.7 19.1 16.6" style="enable-background:new -69.9 124.7 19.1 16.6;" xml:space="preserve">
<g>
	<polygon style="fill:#A51E23;" points="-60,140.7 -58,137.1 -55.9,133.5 -55.6,133 -54.2,135.4 -55.9,138.3 -57.6,141.2 
		-60.4,141.2 	"/>
	<polygon style="fill:#E7343C;" points="-55.3,133.5 -53.2,137.1 -51.1,140.7 -50.8,141.2 -53.6,141.3 -55.3,138.3 -57,135.4 
		-55.6,133 	"/>
	<polygon style="fill:#1C75BC;" points="-69.6,140.7 -67.5,137.1 -65.4,133.5 -65.1,133 -63.7,135.4 -65.4,138.3 -67.1,141.2 
		-69.9,141.2 	"/>
	<polygon style="fill:#E7343C;" points="-64.8,133.5 -62.7,137.1 -60.7,140.7 -60.4,141.2 -63.1,141.3 -64.8,138.3 -66.5,135.4 
		-65.1,133 	"/>
	<polygon style="fill:#1C75BC;" points="-64.8,132.5 -62.7,128.9 -60.7,125.3 -60.4,124.7 -59,127.1 -60.6,130.1 -62.3,133 
		-65.1,133 	"/>
	<polygon style="fill:#00AEEF;" points="-60,125.2 -58,128.8 -55.9,132.4 -55.6,133 -58.4,133 -60.1,130.1 -61.7,127.1 -60.4,124.7 
			"/>
</g>
</svg>
