<?xml version="1.0" encoding="utf-8"?>
<!-- Generator: Adobe Illustrator 19.1.0, SVG Export Plug-In . SVG Version: 6.00 Build 0)  -->
<svg version="1.1" id="Layer_1" xmlns="http://www.w3.org/2000/svg" xmlns:xlink="http://www.w3.org/1999/xlink" x="0px" y="0px"
	 viewBox="158 91.5 83.6 16.6" style="enable-background:new 158 91.5 83.6 16.6;" xml:space="preserve">
<style type="text/css">
	.st0{fill:#313A3F;}
</style>
<g>
	<path class="st0" d="M170.2,104.4v3.6H158V91.8h4.1v12.7L170.2,104.4L170.2,104.4z"/>
	<path class="st0" d="M176.8,108.1h-4.1V91.8h4.1V108.1z"/>
	<path class="st0" d="M197.1,104.4v3.7h-8.2c-6.1,0-8.9-3.7-8.9-8.3c0-4.6,3.8-8.3,8.4-8.3c4.6,0,8.4,2.7,8.4,7.8
		c0,2.4-1.2,4.3-2.4,5.1C194.4,104.4,197.1,104.4,197.1,104.4z M188.4,104.3c2.4,0,4.3-1.8,4.3-4.5c0-2.6-1.9-4.5-4.3-4.5
		s-4.3,1.9-4.3,4.5C184,102.4,186,104.3,188.4,104.3z"/>
	<path class="st0" d="M200.1,101.4v-9.6h4.1v9.6c0,2.6,1.9,3.4,3.1,3.4c1.1,0,3.1-0.8,3.1-3.4v-9.6h4.1v9.6c0,4.2-2.8,6.9-7.2,6.9
		C203,108.3,200.1,105.6,200.1,101.4z"/>
	<path class="st0" d="M222.8,108.1h-4.1V91.8h4.1V108.1z"/>
	<path class="st0" d="M226.7,108.1V91.8h6.6c4.9,0,8.3,3.2,8.3,8.1s-3.3,8.1-8.3,8.1L226.7,108.1L226.7,108.1z M230.8,104.4h2.6
		c1.9,0,4.1-0.8,4.1-4.5s-2.3-4.5-4.1-4.5h-2.6V104.4z"/>
</g>
</svg>
