<?xml version="1.0" encoding="utf-8"?>
<!-- Generator: Adobe Illustrator 19.1.0, SVG Export Plug-In . SVG Version: 6.00 Build 0)  -->
<svg version="1.1" id="Layer_1" xmlns="http://www.w3.org/2000/svg" xmlns:xlink="http://www.w3.org/1999/xlink" x="0px" y="0px"
	 viewBox="378.5 91.7 19.1 16.6" style="enable-background:new 378.5 91.7 19.1 16.6;" xml:space="preserve">
<style type="text/css">
	.st0{fill:#A51E23;}
	.st1{fill:#E7343C;}
	.st2{fill:#1C75BC;}
	.st3{fill:#00AEEF;}
</style>
<g>
	<polygon class="st0" points="388.4,107.7 390.4,104.1 392.5,100.5 392.8,100 394.2,102.4 392.5,105.3 390.8,108.2 388,108.2 	"/>
	<polygon class="st1" points="393.1,100.5 395.2,104.1 397.3,107.7 397.6,108.2 394.8,108.3 393.1,105.3 391.4,102.4 392.8,100 	"/>
	<polygon class="st2" points="378.8,107.7 380.9,104.1 383,100.5 383.3,100 384.7,102.4 383,105.3 381.3,108.2 378.5,108.2 	"/>
	<polygon class="st1" points="383.6,100.5 385.7,104.1 387.7,107.7 388,108.2 385.3,108.3 383.6,105.3 381.9,102.4 383.3,100 	"/>
	<polygon class="st2" points="383.6,99.5 385.7,95.9 387.7,92.3 388,91.7 389.4,94.1 387.8,97.1 386.1,100 383.3,100 	"/>
	<polygon class="st3" points="388.4,92.2 390.4,95.8 392.5,99.4 392.8,100 390,100 388.3,97.1 386.7,94.1 388,91.7 	"/>
</g>
</svg>
