<?xml version="1.0" encoding="utf-8"?>
<!-- Generator: Adobe Illustrator 19.1.0, SVG Export Plug-In . SVG Version: 6.00 Build 0)  -->
<svg version="1.1" id="Layer_1" xmlns="http://www.w3.org/2000/svg" xmlns:xlink="http://www.w3.org/1999/xlink" x="0px" y="0px"
	 viewBox="0 0 200 200" style="enable-background:new 0 0 200 200;" xml:space="preserve">
<path style="fill:#3D2959;" d="M100,0C44.8,0,0,44.8,0,100s44.8,100,100,100s100-44.8,100-100S155.2,0,100,0z M100,177
	c-42.5,0-77-34.5-77-77s34.5-77,77-77s77,34.5,77,77S142.5,177,100,177z"/>
<path style="fill:#00AEEF;" d="M100,23V0C44.8,0,0,44.8,0,100h23C23,57.5,57.5,23,100,23z"/>
<path style="fill:#E7343C;" d="M177,100c0,42.5-34.5,77-77,77v23c55.2,0,100-44.8,100-100H177z"/>
<g>
</g>
<g>
</g>
<g>
</g>
<g>
</g>
<g>
</g>
<g>
</g>
</svg>
